<svg width="96" height="24" viewBox="0 0 96 24" fill="none" xmlns="http://www.w3.org/2000/svg">
<g id="Vector">
<path d="M19.5 8.475V6.675C20.325 6.325 21.1688 6.0625 22.0312 5.8875C22.8937 5.7125 23.8 5.625 24.75 5.625C25.4 5.625 26.0375 5.675 26.6625 5.775C27.2875 5.875 27.9 6 28.5 6.15V7.8C27.9 7.575 27.2938 7.40625 26.6813 7.29375C26.0688 7.18125 25.425 7.125 24.75 7.125C23.8 7.125 22.8875 7.24375 22.0125 7.48125C21.1375 7.71875 20.3 8.05 19.5 8.475ZM19.5 16.725V14.8875C20.325 14.55 21.1688 14.2969 22.0312 14.1281C22.8937 13.9594 23.8 13.875 24.75 13.875C25.4 13.875 26.0375 13.925 26.6625 14.025C27.2875 14.125 27.9 14.25 28.5 14.4V16.05C27.9 15.825 27.2938 15.6563 26.6813 15.5438C26.0688 15.4313 25.425 15.375 24.75 15.375C23.8 15.375 22.8875 15.4875 22.0125 15.7125C21.1375 15.9375 20.3 16.275 19.5 16.725ZM19.5 12.6V10.8C20.325 10.45 21.1688 10.1875 22.0312 10.0125C22.8937 9.8375 23.8 9.75 24.75 9.75C25.4 9.75 26.0375 9.8 26.6625 9.9C27.2875 10 27.9 10.125 28.5 10.275V11.925C27.9 11.7 27.2938 11.5313 26.6813 11.4188C26.0688 11.3063 25.425 11.25 24.75 11.25C23.8 11.25 22.8875 11.3688 22.0125 11.6063C21.1375 11.8438 20.3 12.175 19.5 12.6ZM7.8 18.75C9.13915 18.75 10.4427 18.9062 11.7106 19.2188C12.9785 19.5312 14.225 20 15.45 20.625V4.6125C14.325 3.8625 13.1048 3.28125 11.7893 2.86875C10.4738 2.45625 9.14408 2.25 7.8 2.25C6.85 2.25 5.91875 2.36875 5.00625 2.60625C4.09375 2.84375 3.175 3.1375 2.25 3.4875V19.7625C3.025 19.4125 3.90625 19.1563 4.89375 18.9938C5.88125 18.8313 6.85 18.75 7.8 18.75ZM17.7 20.625C18.95 20 20.175 19.5312 21.375 19.2188C22.575 18.9062 23.85 18.75 25.2 18.75C26.15 18.75 27.1313 18.825 28.1438 18.975C29.1563 19.125 30.025 19.325 30.75 19.575V3.4875C29.9 3.0625 29.0022 2.75 28.0567 2.55C27.1111 2.35 26.1589 2.25 25.2 2.25C23.85 2.25 22.5438 2.45625 21.2812 2.86875C20.0187 3.28125 18.825 3.8625 17.7 4.6125V20.625ZM16.575 24C15.3 23.05 13.9125 22.3188 12.4125 21.8063C10.9125 21.2938 9.375 21.0375 7.8 21.0375C6.88658 21.0375 5.98947 21.15 5.1087 21.375C4.2279 21.6 3.35 21.875 2.475 22.2C1.8975 22.475 1.34063 22.4375 0.804375 22.0875C0.268125 21.7375 0 21.2375 0 20.5875V3.225C0 2.85 0.0875 2.50625 0.2625 2.19375C0.4375 1.88125 0.7 1.6375 1.05 1.4625C2.1 0.9625 3.19244 0.59375 4.32731 0.35625C5.46216 0.11875 6.61973 0 7.8 0C9.375 0 10.9062 0.2125 12.3938 0.6375C13.8813 1.0625 15.275 1.7125 16.575 2.5875C17.85 1.7125 19.2188 1.0625 20.6813 0.6375C22.1438 0.2125 23.65 0 25.2 0C26.3717 0 27.5209 0.11875 28.6475 0.35625C29.7742 0.59375 30.8625 0.9625 31.9125 1.4625C32.2625 1.6375 32.5312 1.88125 32.7188 2.19375C32.9062 2.50625 33 2.85 33 3.225V20.5875C33 21.2849 32.7188 21.8154 32.1562 22.1793C31.5938 22.5431 31.0375 22.55 30.4875 22.2C29.6375 21.85 28.7721 21.5688 27.8913 21.3563C27.0105 21.1438 26.1134 21.0375 25.2 21.0375C23.625 21.0375 22.1125 21.3 20.6625 21.825C19.2125 22.35 17.85 23.075 16.575 24Z" fill="#6787F9"/>
<path d="M54.292 12.24C54.9427 12.3787 55.4653 12.704 55.86 13.216C56.2547 13.7173 56.452 14.2933 56.452 14.944C56.452 15.8827 56.1213 16.6293 55.46 17.184C54.8093 17.728 53.8973 18 52.724 18H47.492V6.768H52.548C53.6893 6.768 54.58 7.02933 55.22 7.552C55.8707 8.07467 56.196 8.784 56.196 9.68C56.196 10.3413 56.02 10.8907 55.668 11.328C55.3267 11.7653 54.868 12.0693 54.292 12.24ZM50.228 11.312H52.02C52.468 11.312 52.8093 11.216 53.044 11.024C53.2893 10.8213 53.412 10.528 53.412 10.144C53.412 9.76 53.2893 9.46667 53.044 9.264C52.8093 9.06133 52.468 8.96 52.02 8.96H50.228V11.312ZM52.244 15.792C52.7027 15.792 53.0547 15.6907 53.3 15.488C53.556 15.2747 53.684 14.9707 53.684 14.576C53.684 14.1813 53.5507 13.872 53.284 13.648C53.028 13.424 52.6707 13.312 52.212 13.312H50.228V15.792H52.244Z" fill="#6787F9"/>
<path d="M62.1029 18.128C61.2282 18.128 60.4389 17.9413 59.7349 17.568C59.0415 17.1947 58.4922 16.6613 58.0869 15.968C57.6922 15.2747 57.4949 14.464 57.4949 13.536C57.4949 12.6187 57.6975 11.8133 58.1029 11.12C58.5082 10.416 59.0629 9.87733 59.7669 9.504C60.4709 9.13067 61.2602 8.944 62.1349 8.944C63.0095 8.944 63.7989 9.13067 64.5029 9.504C65.2069 9.87733 65.7615 10.416 66.1669 11.12C66.5722 11.8133 66.7749 12.6187 66.7749 13.536C66.7749 14.4533 66.5669 15.264 66.1509 15.968C65.7455 16.6613 65.1855 17.1947 64.4709 17.568C63.7669 17.9413 62.9775 18.128 62.1029 18.128ZM62.1029 15.76C62.6255 15.76 63.0682 15.568 63.4309 15.184C63.8042 14.8 63.9909 14.2507 63.9909 13.536C63.9909 12.8213 63.8095 12.272 63.4469 11.888C63.0949 11.504 62.6575 11.312 62.1349 11.312C61.6015 11.312 61.1589 11.504 60.8069 11.888C60.4549 12.2613 60.2789 12.8107 60.2789 13.536C60.2789 14.2507 60.4495 14.8 60.7909 15.184C61.1429 15.568 61.5802 15.76 62.1029 15.76Z" fill="#6787F9"/>
<path d="M72.2904 18.128C71.4157 18.128 70.6264 17.9413 69.9224 17.568C69.229 17.1947 68.6797 16.6613 68.2744 15.968C67.8797 15.2747 67.6824 14.464 67.6824 13.536C67.6824 12.6187 67.885 11.8133 68.2904 11.12C68.6957 10.416 69.2504 9.87733 69.9544 9.504C70.6584 9.13067 71.4477 8.944 72.3224 8.944C73.197 8.944 73.9864 9.13067 74.6904 9.504C75.3944 9.87733 75.949 10.416 76.3544 11.12C76.7597 11.8133 76.9624 12.6187 76.9624 13.536C76.9624 14.4533 76.7544 15.264 76.3384 15.968C75.933 16.6613 75.373 17.1947 74.6584 17.568C73.9544 17.9413 73.165 18.128 72.2904 18.128ZM72.2904 15.76C72.813 15.76 73.2557 15.568 73.6184 15.184C73.9917 14.8 74.1784 14.2507 74.1784 13.536C74.1784 12.8213 73.997 12.272 73.6344 11.888C73.2824 11.504 72.845 11.312 72.3224 11.312C71.789 11.312 71.3464 11.504 70.9944 11.888C70.6424 12.2613 70.4664 12.8107 70.4664 13.536C70.4664 14.2507 70.637 14.8 70.9784 15.184C71.3304 15.568 71.7677 15.76 72.2904 15.76Z" fill="#6787F9"/>
<path d="M83.8699 18L81.1499 14.256V18H78.4139V6.16H81.1499V12.704L83.8539 9.072H87.2299L83.5179 13.552L87.2619 18H83.8699Z" fill="#6787F9"/>
<path d="M91.9365 18.128C91.1578 18.128 90.4645 17.9947 89.8565 17.728C89.2485 17.4613 88.7685 17.0987 88.4165 16.64C88.0645 16.1707 87.8672 15.648 87.8245 15.072H90.5285C90.5605 15.3813 90.7045 15.632 90.9605 15.824C91.2165 16.016 91.5312 16.112 91.9045 16.112C92.2458 16.112 92.5072 16.048 92.6885 15.92C92.8805 15.7813 92.9765 15.6053 92.9765 15.392C92.9765 15.136 92.8432 14.9493 92.5765 14.832C92.3098 14.704 91.8778 14.5653 91.2805 14.416C90.6405 14.2667 90.1072 14.112 89.6805 13.952C89.2538 13.7813 88.8858 13.52 88.5765 13.168C88.2672 12.8053 88.1125 12.32 88.1125 11.712C88.1125 11.2 88.2512 10.736 88.5285 10.32C88.8165 9.89333 89.2325 9.55733 89.7765 9.312C90.3312 9.06667 90.9872 8.944 91.7445 8.944C92.8645 8.944 93.7445 9.22133 94.3845 9.776C95.0352 10.3307 95.4085 11.0667 95.5045 11.984H92.9765C92.9338 11.6747 92.7952 11.4293 92.5605 11.248C92.3365 11.0667 92.0378 10.976 91.6645 10.976C91.3445 10.976 91.0992 11.04 90.9285 11.168C90.7578 11.2853 90.6725 11.4507 90.6725 11.664C90.6725 11.92 90.8058 12.112 91.0725 12.24C91.3498 12.368 91.7765 12.496 92.3525 12.624C93.0138 12.7947 93.5525 12.9653 93.9685 13.136C94.3845 13.296 94.7472 13.5627 95.0565 13.936C95.3765 14.2987 95.5418 14.7893 95.5525 15.408C95.5525 15.9307 95.4032 16.4 95.1045 16.816C94.8165 17.2213 94.3952 17.5413 93.8405 17.776C93.2965 18.0107 92.6618 18.128 91.9365 18.128Z" fill="#6787F9"/>
</g>
</svg>
