<svg width="166" height="28" viewBox="0 0 166 28" fill="none" xmlns="http://www.w3.org/2000/svg">
<path d="M0 27.0596V0.738773H9.60018V4.05325H4.26675V11.722H8.61998V15.069H4.26675V27.0596H0Z" fill="black"/>
<path d="M10.0513 27.0596L14.7217 0.738773H19.2767L23.9471 27.0596H19.9975L19.0749 20.9831H15.01L14.0586 27.0596H10.0513ZM15.4424 17.9285H18.6136L17.028 6.8803L15.4424 17.9285Z" fill="black"/>
<path d="M32.0641 27.417C30.6611 27.417 29.4887 27.1138 28.5469 26.5072C27.6052 25.8789 26.8941 24.9691 26.4136 23.7776C25.9331 22.5861 25.664 21.1239 25.6063 19.3908L29.2677 18.5784C29.3061 19.5966 29.4118 20.4956 29.5848 21.2755C29.777 22.0554 30.0557 22.662 30.4208 23.0952C30.8052 23.5068 31.3049 23.7126 31.92 23.7126C32.6119 23.7126 33.102 23.4852 33.3903 23.0302C33.6786 22.5536 33.8227 21.9579 33.8227 21.243C33.8227 20.0949 33.5921 19.1525 33.1308 18.416C32.6695 17.6794 32.0545 16.9429 31.2857 16.2063L28.3451 13.2818C27.5187 12.4802 26.8556 11.592 26.3559 10.6172C25.8754 9.6207 25.6352 8.39672 25.6352 6.94529C25.6352 4.86562 26.1733 3.26254 27.2496 2.13605C28.3259 1.00956 29.7962 0.44632 31.6605 0.44632C32.756 0.44632 33.669 0.641289 34.3993 1.03123C35.1296 1.3995 35.7062 1.91942 36.1291 2.59098C36.5711 3.26254 36.8979 4.03158 37.1093 4.89811C37.3207 5.74298 37.4552 6.642 37.5129 7.59518L33.8804 8.31007C33.8419 7.48687 33.7554 6.75032 33.6209 6.10042C33.5056 5.45053 33.2846 4.94144 32.9578 4.57316C32.6503 4.20489 32.189 4.02075 31.574 4.02075C30.9398 4.02075 30.4497 4.25905 30.1037 4.73564C29.777 5.19057 29.6136 5.76464 29.6136 6.45787C29.6136 7.34606 29.777 8.08261 30.1037 8.66751C30.4305 9.23076 30.9013 9.81567 31.5164 10.4222L34.4281 13.3143C35.3891 14.2241 36.2059 15.2965 36.8786 16.5313C37.5705 17.7444 37.9165 19.2175 37.9165 20.9506C37.9165 22.207 37.6666 23.3227 37.1669 24.2975C36.6864 25.2724 36.0041 26.0414 35.12 26.6047C34.2552 27.1462 33.2365 27.417 32.0641 27.417Z" fill="black"/>
<path d="M40.4864 27.0596V0.738773H44.7243V11.7545H49.4811V0.738773H53.7479V27.0596H49.4811V15.1665H44.7243V27.0596H40.4864Z" fill="black"/>
<path d="M57.4362 27.0596V0.738773H61.6453V27.0596H57.4362Z" fill="black"/>
<path d="M71.6027 27.417C69.9498 27.417 68.6333 27.0704 67.6531 26.3772C66.6729 25.684 65.9714 24.6875 65.5485 23.3877C65.1257 22.0879 64.9143 20.5498 64.9143 18.7734V8.92747C64.9143 7.15109 65.1257 5.63466 65.5485 4.3782C65.9714 3.10007 66.6729 2.12522 67.6531 1.45366C68.6333 0.7821 69.9498 0.44632 71.6027 0.44632C73.294 0.44632 74.6202 0.7821 75.5812 1.45366C76.5614 2.12522 77.2629 3.10007 77.6857 4.3782C78.1278 5.63466 78.3488 7.15109 78.3488 8.92747V18.8059C78.3488 20.5606 78.1278 22.0879 77.6857 23.3877C77.2629 24.6658 76.5614 25.6623 75.5812 26.3772C74.6202 27.0704 73.294 27.417 71.6027 27.417ZM71.6027 23.8751C72.3138 23.8751 72.8328 23.7018 73.1595 23.3552C73.5054 23.0086 73.7361 22.532 73.8514 21.9254C73.9667 21.3188 74.0244 20.6581 74.0244 19.9432V7.82265C74.0244 7.0861 73.9667 6.42537 73.8514 5.84046C73.7361 5.25556 73.5054 4.80063 73.1595 4.47568C72.8328 4.12907 72.3138 3.95576 71.6027 3.95576C70.93 3.95576 70.4207 4.12907 70.0748 4.47568C69.7288 4.80063 69.4982 5.25556 69.3828 5.84046C69.2675 6.42537 69.2099 7.0861 69.2099 7.82265V19.9432C69.2099 20.6581 69.2579 21.3188 69.354 21.9254C69.4693 22.532 69.7 23.0086 70.0459 23.3552C70.3919 23.7018 70.9108 23.8751 71.6027 23.8751Z" fill="black"/>
<path d="M81.5049 27.0596V0.738773H84.4743L90.1537 15.7514V0.738773H93.6709V27.0596H90.8456L85.1374 11.3321V27.0596H81.5049Z" fill="black"/>
<path d="M103.096 27.417C101.693 27.417 100.52 27.1138 99.5787 26.5072C98.6369 25.8789 97.9258 24.9691 97.4453 23.7776C96.9648 22.5861 96.6957 21.1239 96.6381 19.3908L100.299 18.5784C100.338 19.5966 100.444 20.4956 100.617 21.2755C100.809 22.0554 101.087 22.662 101.453 23.0952C101.837 23.5068 102.337 23.7126 102.952 23.7126C103.644 23.7126 104.134 23.4852 104.422 23.0302C104.71 22.5536 104.854 21.9579 104.854 21.243C104.854 20.0949 104.624 19.1525 104.163 18.416C103.701 17.6794 103.086 16.9429 102.317 16.2063L99.3769 13.2818C98.5504 12.4802 97.8874 11.592 97.3877 10.6172C96.9072 9.6207 96.6669 8.39672 96.6669 6.94529C96.6669 4.86562 97.2051 3.26254 98.2814 2.13605C99.3577 1.00956 100.828 0.44632 102.692 0.44632C103.788 0.44632 104.701 0.641289 105.431 1.03123C106.161 1.3995 106.738 1.91942 107.161 2.59098C107.603 3.26254 107.93 4.03158 108.141 4.89811C108.352 5.74298 108.487 6.642 108.545 7.59518L104.912 8.31007C104.874 7.48687 104.787 6.75032 104.653 6.10042C104.537 5.45053 104.316 4.94144 103.99 4.57316C103.682 4.20489 103.221 4.02075 102.606 4.02075C101.972 4.02075 101.481 4.25905 101.135 4.73564C100.809 5.19057 100.645 5.76464 100.645 6.45787C100.645 7.34606 100.809 8.08261 101.135 8.66751C101.462 9.23076 101.933 9.81567 102.548 10.4222L105.46 13.3143C106.421 14.2241 107.238 15.2965 107.91 16.5313C108.602 17.7444 108.948 19.2175 108.948 20.9506C108.948 22.207 108.698 23.3227 108.199 24.2975C107.718 25.2724 107.036 26.0414 106.152 26.6047C105.287 27.1462 104.268 27.417 103.096 27.417Z" fill="black"/>
<path d="M113.796 27.0596V4.28071H110.077V0.738773H121.724V4.28071H118.062V27.0596H113.796Z" fill="black"/>
<path d="M130.078 27.417C128.425 27.417 127.108 27.0704 126.128 26.3772C125.148 25.684 124.447 24.6875 124.024 23.3877C123.601 22.0879 123.389 20.5498 123.389 18.7734V8.92747C123.389 7.15109 123.601 5.63466 124.024 4.3782C124.447 3.10007 125.148 2.12522 126.128 1.45366C127.108 0.7821 128.425 0.44632 130.078 0.44632C131.769 0.44632 133.095 0.7821 134.056 1.45366C135.037 2.12522 135.738 3.10007 136.161 4.3782C136.603 5.63466 136.824 7.15109 136.824 8.92747V18.8059C136.824 20.5606 136.603 22.0879 136.161 23.3877C135.738 24.6658 135.037 25.6623 134.056 26.3772C133.095 27.0704 131.769 27.417 130.078 27.417ZM130.078 23.8751C130.789 23.8751 131.308 23.7018 131.635 23.3552C131.981 23.0086 132.211 22.532 132.327 21.9254C132.442 21.3188 132.5 20.6581 132.5 19.9432V7.82265C132.5 7.0861 132.442 6.42537 132.327 5.84046C132.211 5.25556 131.981 4.80063 131.635 4.47568C131.308 4.12907 130.789 3.95576 130.078 3.95576C129.405 3.95576 128.896 4.12907 128.55 4.47568C128.204 4.80063 127.973 5.25556 127.858 5.84046C127.743 6.42537 127.685 7.0861 127.685 7.82265V19.9432C127.685 20.6581 127.733 21.3188 127.829 21.9254C127.945 22.532 128.175 23.0086 128.521 23.3552C128.867 23.7018 129.386 23.8751 130.078 23.8751Z" fill="black"/>
<path d="M139.98 27.0596V0.738773H145.573C147.149 0.738773 148.475 0.955406 149.551 1.38867C150.647 1.80027 151.473 2.51516 152.031 3.53333C152.607 4.5515 152.896 5.93795 152.896 7.69267C152.896 8.75417 152.809 9.70735 152.636 10.5522C152.463 11.3971 152.165 12.1228 151.743 12.7294C151.339 13.3143 150.772 13.7692 150.042 14.0942L153.299 27.0596H149.033L146.207 15.004H144.247V27.0596H139.98ZM144.247 11.982H145.573C146.399 11.982 147.053 11.852 147.533 11.5921C148.033 11.3104 148.389 10.8772 148.6 10.2923C148.812 9.68569 148.917 8.91664 148.917 7.98512C148.917 6.66367 148.696 5.67799 148.254 5.02809C147.831 4.35653 147.014 4.02075 145.804 4.02075H144.247V11.982Z" fill="black"/>
<path d="M156.14 27.0596V0.738773H165.942V4.11824H160.407V11.6895H164.76V15.0365H160.407V23.7451H166V27.0596H156.14Z" fill="black"/>
</svg>
