<svg width="124" height="24" viewBox="0 0 124 24" fill="none" xmlns="http://www.w3.org/2000/svg">
<g id="MyHeader">
<path d="M0.0639878 19.68C0.0213293 18.24 0 16.8582 0 15.5345C0 13.1491 0.0710975 10.9891 0.213293 9.05455C0.355488 7.12 0.561671 5.47636 0.831841 4.12364C0.959817 3.49818 1.13756 2.89455 1.36507 2.31273C1.6068 1.73091 1.94096 1.25818 2.36755 0.894546C2.80835 0.516364 3.38424 0.327274 4.09522 0.327274C4.79197 0.327274 5.38208 0.516364 5.86555 0.894546C6.34901 1.25818 6.74005 1.70182 7.03866 2.22545C7.35149 2.74909 7.579 3.25091 7.72119 3.73091C8.0909 4.86545 8.40373 6 8.65968 7.13454C8.91563 8.26909 9.14314 9.35273 9.34222 10.3855C9.48441 9.62909 9.64794 8.83636 9.83279 8.00727C10.0176 7.16364 10.2025 6.37091 10.3874 5.62909C10.5722 4.87273 10.7428 4.24727 10.8993 3.75273C11.6244 1.46909 12.7407 0.327274 14.2479 0.327274C15.0869 0.327274 15.7979 0.640001 16.3809 1.26546C16.9639 1.87636 17.3905 2.76364 17.6606 3.92727C17.7886 4.45091 17.9166 5.21455 18.0446 6.21818C18.1868 7.22182 18.3147 8.41455 18.4285 9.79636C18.5565 11.1636 18.6631 12.6764 18.7484 14.3345C18.848 15.9927 18.9262 17.7527 18.983 19.6145L15.2291 19.5273C15.2291 18.7564 15.2078 17.8618 15.1651 16.8436C15.1367 15.8255 15.0869 14.7709 15.0158 13.68C14.9589 12.5745 14.8878 11.4982 14.8025 10.4509C14.7314 9.40364 14.6532 8.45818 14.5679 7.61455C14.4968 6.77091 14.4257 6.10182 14.3546 5.60727C14.2835 5.09818 14.2195 4.84364 14.1626 4.84364C14.1484 4.84364 14.0702 5.10545 13.928 5.62909C13.8 6.13818 13.6365 6.82182 13.4374 7.68C13.2526 8.53818 13.0464 9.48364 12.8189 10.5164C12.5914 11.5491 12.3639 12.5891 12.1364 13.6364C11.9231 14.6691 11.7311 15.6291 11.5605 16.5164C11.3898 17.3891 11.2547 18.1018 11.1552 18.6545L7.80651 18.7418C7.63588 17.9273 7.42969 17.0327 7.18796 16.0582C6.96045 15.0691 6.71872 14.0655 6.46277 13.0473C6.22104 12.0145 5.9793 11.0255 5.73757 10.08C5.49584 9.12 5.26833 8.26182 5.05504 7.50545C4.85596 6.74909 4.69244 6.15273 4.56446 5.71636C4.43649 5.26545 4.35828 5.04 4.32984 5.04C4.27296 5.04 4.20897 5.36 4.13788 6C4.081 6.62545 4.02412 7.47636 3.96724 8.55273C3.91036 9.62909 3.8606 10.8436 3.81794 12.1964C3.7895 13.5491 3.77528 14.9455 3.77528 16.3855C3.77528 17.0691 3.77528 17.6945 3.77528 18.2618C3.7895 18.8291 3.80372 19.2945 3.81794 19.6582L0.0639878 19.68Z" fill="white"/>
<path d="M24.4315 24L21.2321 22.2545C22.0284 21.3527 22.8034 20.4218 23.557 19.4618C24.3106 18.5164 25.0287 17.5418 25.7113 16.5382C25.0429 15.6218 24.3746 14.64 23.7063 13.5927C23.038 12.5309 22.4194 11.4909 21.8507 10.4727C21.2819 9.45455 20.8197 8.54545 20.4643 7.74545L23.8769 6.21818C24.1329 6.91636 24.4599 7.67273 24.8581 8.48727C25.2705 9.30182 25.7184 10.1309 26.2018 10.9745C26.6995 11.8182 27.2114 12.6255 27.7375 13.3964C29.2732 10.8509 30.5388 8.34182 31.5341 5.86909L35.0748 7.30909C34.4349 8.56 33.7097 9.90545 32.8992 11.3455C32.1029 12.7709 31.2426 14.2255 30.3184 15.7091C29.4083 17.1782 28.4556 18.6182 27.4603 20.0291C26.4649 21.4545 25.4553 22.7782 24.4315 24Z" fill="white"/>
<path d="M37.3899 19.6582C37.2619 18.8436 37.1695 17.8473 37.1126 16.6691C37.0557 15.4909 37.0273 14.2182 37.0273 12.8509C37.0273 11.44 37.0486 9.99273 37.0913 8.50909C37.1481 7.02545 37.2121 5.6 37.2832 4.23273C37.3685 2.85091 37.461 1.62909 37.5605 0.567273L41.2718 0.632728C41.1154 1.65091 40.9874 2.78545 40.8879 4.03636C40.8025 5.27273 40.7314 6.56 40.6746 7.89818C41.6842 7.75273 42.7791 7.64364 43.9593 7.57091C45.1395 7.49818 46.2771 7.46182 47.372 7.46182C47.8981 7.46182 48.4029 7.47636 48.8863 7.50545C48.8721 6.41455 48.8508 5.39636 48.8223 4.45091C48.7939 3.50545 48.7584 2.70545 48.7157 2.05091C48.673 1.39636 48.6233 0.945455 48.5664 0.698182L52.235 0.458182C52.363 1.68 52.4625 3.14182 52.5336 4.84364C52.619 6.54545 52.6616 8.34909 52.6616 10.2545C52.6616 11.7964 52.6332 13.3673 52.5763 14.9673C52.5194 16.5527 52.4199 18.08 52.2777 19.5491H48.7157C48.7726 19.0836 48.8152 18.4509 48.8437 17.6509C48.8721 16.8364 48.8934 15.92 48.9077 14.9018C48.9219 13.8691 48.929 12.7927 48.929 11.6727C48.929 11.4691 48.929 11.2582 48.929 11.04C48.6588 11.04 48.3815 11.04 48.0972 11.04C47.827 11.0255 47.5497 11.0182 47.2653 11.0182C46.142 11.0182 45.0044 11.0618 43.8526 11.1491C42.7151 11.2218 41.6273 11.3309 40.5893 11.4764C40.5893 11.9418 40.5893 12.4073 40.5893 12.8727C40.5893 14.1527 40.5964 15.3527 40.6106 16.4727C40.639 17.5927 40.6817 18.6109 40.7386 19.5273L37.3899 19.6582Z" fill="white"/>
<path d="M61.6412 19.8327C60.2762 19.8327 59.0746 19.5564 58.0366 19.0036C57.0128 18.4655 56.2094 17.7091 55.6264 16.7345C55.0576 15.76 54.7732 14.6327 54.7732 13.3527C54.7732 12.5818 54.9012 11.7745 55.1571 10.9309C55.4131 10.0727 55.8255 9.27273 56.3942 8.53091C56.963 7.78909 57.7095 7.18545 58.6338 6.72C59.5723 6.25455 60.7099 6.02182 62.0465 6.02182C63.0134 6.02182 63.8239 6.13091 64.478 6.34909C65.1463 6.56727 65.6867 6.85091 66.099 7.2C66.5256 7.54909 66.8456 7.92 67.0589 8.31273C67.2864 8.70545 67.4357 9.08364 67.5068 9.44727C67.5921 9.79636 67.6348 10.0873 67.6348 10.32C67.6348 11.7309 67.0518 12.8218 65.8858 13.5927C64.734 14.3491 63.0987 14.7273 60.98 14.7273C60.4966 14.7273 60.0344 14.7055 59.5936 14.6618C59.167 14.6182 58.7689 14.5673 58.3992 14.5091C58.6694 15.2364 59.1173 15.7745 59.7429 16.1236C60.3686 16.4582 61.0156 16.6255 61.6839 16.6255C62.6508 16.6255 63.504 16.4509 64.2434 16.1018C64.9828 15.7382 65.6796 15.1855 66.3337 14.4436L68.232 17.2364C67.777 17.6145 67.2651 18.0073 66.6963 18.4145C66.1417 18.8218 65.4592 19.1564 64.6487 19.4182C63.8381 19.6945 62.8357 19.8327 61.6412 19.8327ZM62.1105 9.29455C61.2715 9.29455 60.5321 9.51273 59.8922 9.94909C59.2524 10.3855 58.7831 10.96 58.4845 11.6727C58.84 11.7309 59.1884 11.7818 59.5296 11.8255C59.8851 11.8545 60.2335 11.8691 60.5748 11.8691C60.8876 11.8691 61.2431 11.84 61.6412 11.7818C62.0536 11.7236 62.4517 11.6364 62.8357 11.52C63.2338 11.4036 63.5609 11.2582 63.8168 11.0836C64.0728 10.8945 64.2007 10.6764 64.2007 10.4291C64.2007 10.3127 64.1439 10.1673 64.0301 9.99273C63.9164 9.81818 63.7102 9.65818 63.4116 9.51273C63.1129 9.36727 62.6793 9.29455 62.1105 9.29455Z" fill="white"/>
<path d="M75.2381 19.8109C74.1717 19.8109 73.2048 19.5273 72.3374 18.96C71.47 18.4073 70.7803 17.6582 70.2684 16.7127C69.7707 15.7527 69.5219 14.6836 69.5219 13.5055C69.5219 12.4 69.721 11.4036 70.1191 10.5164C70.5173 9.61454 71.0576 8.84364 71.7401 8.20364C72.4369 7.56364 73.2261 7.07636 74.1077 6.74182C74.9893 6.39273 75.9136 6.21818 76.8805 6.21818C77.691 6.21818 78.4873 6.33455 79.2694 6.56727C79.3262 6.26182 79.376 5.95636 79.4187 5.65091L83.066 6.28364C82.9664 6.56 82.8669 6.97455 82.7674 7.52727C82.6678 8.08 82.5825 8.69818 82.5114 9.38182C82.4545 10.0655 82.4048 10.7491 82.3621 11.4327C82.3195 12.1164 82.2981 12.7345 82.2981 13.2873C82.2981 13.7382 82.3266 14.1818 82.3834 14.6182C82.4545 15.04 82.5967 15.3891 82.81 15.6655C83.0233 15.9273 83.3504 16.0582 83.7912 16.0582H84.0898L83.5565 19.8545C82.6181 19.8545 81.8431 19.6873 81.2317 19.3527C80.6202 19.0327 80.1296 18.5964 79.7599 18.0436C79.1485 18.7418 78.4517 19.2073 77.6697 19.44C76.8876 19.6873 76.0771 19.8109 75.2381 19.8109ZM73.0199 13.9418C73.091 14.64 73.3683 15.2 73.8517 15.6218C74.3494 16.0291 74.9751 16.2327 75.7287 16.2327C76.4539 16.2327 77.0582 16.0364 77.5417 15.6436C78.0252 15.2364 78.4233 14.6836 78.7361 13.9855C78.7219 13.7527 78.7148 13.5127 78.7148 13.2655C78.7148 12.7564 78.729 12.2327 78.7575 11.6945C78.7859 11.1564 78.8215 10.6255 78.8641 10.1018C78.2669 9.86909 77.6412 9.75273 76.9871 9.75273C76.2193 9.75273 75.5296 9.91273 74.9182 10.2327C74.321 10.5382 73.8517 10.9673 73.5105 11.52C73.1692 12.0727 72.9986 12.7127 72.9986 13.44C72.9986 13.5273 72.9986 13.6145 72.9986 13.7018C72.9986 13.7891 73.0057 13.8691 73.0199 13.9418Z" fill="white"/>
<path d="M90.7982 19.8109C90.0588 19.8109 89.3336 19.68 88.6226 19.4182C87.9258 19.1564 87.2931 18.7491 86.7243 18.1964C86.1697 17.6582 85.7289 16.9818 85.4019 16.1673C85.0748 15.3382 84.9113 14.3709 84.9113 13.2655C84.9113 12.0145 85.0961 10.9382 85.4659 10.0364C85.8498 9.12 86.3546 8.37091 86.9802 7.78909C87.6059 7.19273 88.3026 6.74909 89.0705 6.45818C89.8383 6.16727 90.6062 6.02182 91.3741 6.02182C91.8291 6.02182 92.2628 6.05818 92.6751 6.13091C93.0875 6.18909 93.4714 6.27636 93.8269 6.39273C93.8696 5.33091 93.9193 4.26182 93.9762 3.18545C94.0473 2.10909 94.1255 1.04727 94.2109 0L97.7942 0.240001C97.6804 1.44727 97.5809 2.74909 97.4956 4.14545C97.4102 5.52727 97.3463 6.93818 97.3036 8.37818C97.2752 9.81818 97.2609 11.2218 97.2609 12.5891C97.2609 13.8691 97.2752 15.0909 97.3036 16.2545C97.3463 17.4036 97.396 18.4509 97.4529 19.3964L93.7629 19.68C93.7487 19.4036 93.7416 19.1345 93.7416 18.8727C93.3292 19.1491 92.8742 19.3745 92.3765 19.5491C91.8931 19.7236 91.3669 19.8109 90.7982 19.8109ZM88.3453 13.0691C88.3453 13.8255 88.4875 14.4218 88.7719 14.8582C89.0563 15.28 89.4047 15.5782 89.817 15.7527C90.2294 15.9273 90.6275 16.0145 91.0115 16.0145C91.4665 16.0145 91.9215 15.9127 92.3765 15.7091C92.8316 15.5055 93.2581 15.1491 93.6563 14.64C93.6563 14.4655 93.6563 14.2982 93.6563 14.1382C93.6563 12.96 93.6705 11.7527 93.6989 10.5164C93.0306 9.92 92.3054 9.62182 91.5234 9.62182C91.1963 9.62182 90.8479 9.67273 90.4782 9.77455C90.1085 9.87636 89.7601 10.0582 89.4331 10.32C89.1203 10.5673 88.8572 10.9164 88.6439 11.3673C88.4448 11.8036 88.3453 12.3709 88.3453 13.0691Z" fill="white"/>
<path d="M105.945 19.8327C104.58 19.8327 103.379 19.5564 102.341 19.0036C101.317 18.4655 100.513 17.7091 99.9304 16.7345C99.3616 15.76 99.0773 14.6327 99.0773 13.3527C99.0773 12.5818 99.2052 11.7745 99.4612 10.9309C99.7171 10.0727 100.129 9.27273 100.698 8.53091C101.267 7.78909 102.014 7.18545 102.938 6.72C103.876 6.25455 105.014 6.02182 106.351 6.02182C107.317 6.02182 108.128 6.13091 108.782 6.34909C109.45 6.56727 109.991 6.85091 110.403 7.2C110.83 7.54909 111.15 7.92 111.363 8.31273C111.59 8.70545 111.74 9.08364 111.811 9.44727C111.896 9.79636 111.939 10.0873 111.939 10.32C111.939 11.7309 111.356 12.8218 110.19 13.5927C109.038 14.3491 107.403 14.7273 105.284 14.7273C104.801 14.7273 104.338 14.7055 103.898 14.6618C103.471 14.6182 103.073 14.5673 102.703 14.5091C102.973 15.2364 103.421 15.7745 104.047 16.1236C104.673 16.4582 105.32 16.6255 105.988 16.6255C106.955 16.6255 107.808 16.4509 108.547 16.1018C109.287 15.7382 109.984 15.1855 110.638 14.4436L112.536 17.2364C112.081 17.6145 111.569 18.0073 111 18.4145C110.446 18.8218 109.763 19.1564 108.953 19.4182C108.142 19.6945 107.14 19.8327 105.945 19.8327ZM106.415 9.29455C105.576 9.29455 104.836 9.51273 104.196 9.94909C103.556 10.3855 103.087 10.96 102.789 11.6727C103.144 11.7309 103.492 11.7818 103.834 11.8255C104.189 11.8545 104.538 11.8691 104.879 11.8691C105.192 11.8691 105.547 11.84 105.945 11.7818C106.358 11.7236 106.756 11.6364 107.14 11.52C107.538 11.4036 107.865 11.2582 108.121 11.0836C108.377 10.8945 108.505 10.6764 108.505 10.4291C108.505 10.3127 108.448 10.1673 108.334 9.99273C108.22 9.81818 108.014 9.65818 107.716 9.51273C107.417 9.36727 106.983 9.29455 106.415 9.29455Z" fill="white"/>
<path d="M114.103 19.7891C114.16 18.5818 114.203 17.3745 114.231 16.1673C114.26 14.96 114.274 13.7673 114.274 12.5891C114.26 11.5127 114.238 10.4509 114.21 9.40364C114.196 8.34182 114.16 7.31636 114.103 6.32727L117.687 6.21818C117.701 6.75636 117.722 7.30909 117.751 7.87636C118.206 7.29455 118.732 6.82909 119.329 6.48C119.94 6.11636 120.637 5.93455 121.419 5.93455C121.718 5.93455 122.102 5.97818 122.571 6.06545C123.04 6.15273 123.517 6.32 124 6.56727L123.595 10.2545C123.239 10.0364 122.855 9.88364 122.443 9.79636C122.045 9.69454 121.711 9.64364 121.44 9.64364C120.53 9.64364 119.755 10.0655 119.116 10.9091C118.49 11.7382 118.063 12.8945 117.836 14.3782C117.836 15.3964 117.822 16.3709 117.793 17.3018C117.779 18.2182 117.743 19.0473 117.687 19.7891H114.103Z" fill="white"/>
</g>
</svg>
