<svg xmlns="http://www.w3.org/2000/svg" width="53" height="24" viewBox="0 0 53 24" fill="none">
    <path
        d="M1.92 14.136C1.648 14.136 1.32 14.032 0.936 13.824C0.552 13.616 0.288 13.392 0.144 13.152C0.048 12.992 0 12.8 0 12.576C0 12.064 0.184 11.384 0.552 10.536C0.936 9.672 1.416 8.744 1.992 7.752C2.248 7.304 2.576 6.784 2.976 6.192C3.392 5.6 3.856 4.992 4.368 4.368C4.88 3.728 5.416 3.12 5.976 2.544C6.552 1.968 7.12 1.464 7.68 1.032C8.256 0.600001 8.8 0.296001 9.312 0.120001C9.52 0.0400004 9.704 0 9.864 0C10.168 0 10.376 0.104 10.488 0.312C10.616 0.504001 10.784 0.664001 10.992 0.792001C11.12 0.872001 11.184 1 11.184 1.176C11.184 1.544 10.984 1.984 10.584 2.496C10.184 3.008 9.664 3.552 9.024 4.128C8.384 4.704 7.696 5.28 6.96 5.856C6.224 6.416 5.512 6.936 4.824 7.416C4.152 7.896 3.576 8.296 3.096 8.616C2.616 8.936 2.312 9.136 2.184 9.216C1.944 9.664 1.72 10.176 1.512 10.752C1.304 11.328 1.2 11.872 1.2 12.384C1.2 12.576 1.224 12.792 1.272 13.032C1.336 13.256 1.496 13.368 1.752 13.368C1.992 13.368 2.272 13.28 2.592 13.104C2.912 12.928 3.224 12.736 3.528 12.528C3.832 12.304 4.072 12.12 4.248 11.976C4.664 11.64 5.032 11.296 5.352 10.944C5.672 10.592 6.048 10.192 6.48 9.744C6.512 9.712 6.544 9.688 6.576 9.672C6.608 9.64 6.648 9.624 6.696 9.624C6.792 9.624 6.84 9.68 6.84 9.792C6.84 9.888 6.8 9.976 6.72 10.056C6.08 10.76 5.408 11.488 4.704 12.24C4.016 12.992 3.248 13.584 2.4 14.016C2.24 14.096 2.08 14.136 1.92 14.136ZM2.952 7.968C3.192 7.888 3.528 7.696 3.96 7.392C4.392 7.072 4.872 6.696 5.4 6.264C5.944 5.832 6.488 5.376 7.032 4.896C7.592 4.4 8.104 3.928 8.568 3.48C9.048 3.016 9.44 2.624 9.744 2.304C10.064 1.968 10.248 1.736 10.296 1.608C10.328 1.512 10.344 1.448 10.344 1.416C10.344 1.288 10.28 1.2 10.152 1.152C10.04 1.104 9.912 1.08 9.768 1.08C9.688 1.08 9.608 1.088 9.528 1.104C9.448 1.12 9.376 1.136 9.312 1.152C9.04 1.248 8.68 1.488 8.232 1.872C7.784 2.24 7.304 2.696 6.792 3.24C6.28 3.768 5.768 4.328 5.256 4.92C4.76 5.512 4.304 6.08 3.888 6.624C3.488 7.152 3.176 7.6 2.952 7.968Z"
        fill="black" />
    <path
        d="M14.6016 14.232C14.4576 14.232 14.2816 14.168 14.0736 14.04C13.8816 13.928 13.7456 13.816 13.6656 13.704C13.5856 13.56 13.5216 13.288 13.4736 12.888C13.4256 12.488 13.3936 12.08 13.3776 11.664C13.3616 11.248 13.3536 10.952 13.3536 10.776C12.8256 11.24 12.2176 11.736 11.5296 12.264C10.8576 12.792 10.1536 13.24 9.41756 13.608C8.69756 13.976 7.97756 14.16 7.25756 14.16C6.68156 14.16 6.27356 13.96 6.03356 13.56C5.79356 13.16 5.67356 12.728 5.67356 12.264C5.67356 11.896 5.76956 11.472 5.96156 10.992C6.16956 10.496 6.44156 10 6.77756 9.504C7.11356 9.008 7.48956 8.552 7.90556 8.136C8.32156 7.704 8.74556 7.36 9.17756 7.104C9.62556 6.832 10.0416 6.696 10.4256 6.696C10.5536 6.696 10.6416 6.728 10.6896 6.792C10.7536 6.84 10.8016 6.928 10.8336 7.056C10.8656 7.12 10.8896 7.192 10.9056 7.272C10.9216 7.352 10.9456 7.432 10.9776 7.512C11.0416 7.624 11.0976 7.736 11.1456 7.848C11.1936 7.96 11.2176 8.08 11.2176 8.208C11.2176 8.368 11.1776 8.512 11.0976 8.64C11.0176 8.752 10.9216 8.856 10.8096 8.952C10.6496 9.096 10.4096 9.28 10.0896 9.504C9.76956 9.712 9.41756 9.928 9.03356 10.152C8.66556 10.36 8.30556 10.544 7.95356 10.704C7.61756 10.864 7.34556 10.96 7.13756 10.992C7.10556 11.04 7.04156 11.168 6.94556 11.376C6.84956 11.584 6.76156 11.824 6.68156 12.096C6.61756 12.368 6.58556 12.624 6.58556 12.864C6.58556 13.072 6.63356 13.256 6.72956 13.416C6.82556 13.56 6.99356 13.632 7.23356 13.632C7.74556 13.632 8.55356 13.336 9.65756 12.744C10.7776 12.136 12.0016 11.288 13.3296 10.2C13.3296 9.704 13.3136 9.272 13.2816 8.904C13.2656 8.536 13.2336 8.152 13.1856 7.752C12.9776 7.848 12.8016 7.896 12.6576 7.896C12.5136 7.896 12.4416 7.832 12.4416 7.704C12.4416 7.528 12.5456 7.328 12.7536 7.104C12.8336 7.024 12.9936 6.896 13.2336 6.72C13.4736 6.544 13.6496 6.456 13.7616 6.456C13.8896 6.456 13.9856 6.488 14.0496 6.552C14.1296 6.616 14.2016 6.688 14.2656 6.768C14.3296 6.848 14.3776 7.056 14.4096 7.392C14.4416 7.728 14.4656 8.064 14.4816 8.4C14.5136 8.736 14.5296 8.968 14.5296 9.096C14.8976 8.776 15.1936 8.504 15.4176 8.28C15.6576 8.056 15.9536 7.784 16.3056 7.464C16.4816 7.304 16.7216 7.072 17.0256 6.768C17.3296 6.464 17.5696 6.224 17.7456 6.048C17.8416 5.776 17.9456 5.552 18.0576 5.376C18.1536 5.2 18.2656 5.056 18.3936 4.944C18.5376 4.832 18.6896 4.776 18.8496 4.776C18.9776 4.792 19.0816 4.856 19.1616 4.968C19.2576 5.08 19.3056 5.208 19.3056 5.352C19.3056 5.608 19.2096 5.816 19.0176 5.976C18.8416 6.136 18.6416 6.344 18.4176 6.6C18.2096 6.84 18.0496 7.232 17.9376 7.776C17.9216 7.84 17.8976 7.936 17.8656 8.064C17.8336 8.192 17.7776 8.256 17.6976 8.256C17.4736 8.224 17.3616 8.056 17.3616 7.752C17.3616 7.688 17.3616 7.616 17.3616 7.536C17.3776 7.44 17.3936 7.352 17.4096 7.272L14.5296 9.744V10.872C14.5296 11.272 14.5376 11.672 14.5536 12.072C14.5856 12.472 14.6336 12.736 14.6976 12.864C14.7456 12.928 14.7856 12.984 14.8176 13.032C14.8656 13.064 14.9216 13.08 14.9856 13.08C15.2096 13.08 15.4896 12.952 15.8256 12.696C16.1616 12.424 16.5216 12.096 16.9056 11.712C17.2896 11.312 17.6496 10.92 17.9856 10.536C18.3376 10.136 18.6336 9.8 18.8736 9.528C19.1296 9.256 19.2816 9.12 19.3296 9.12H19.3776C19.4576 9.12 19.4976 9.168 19.4976 9.264V9.312C19.4976 9.392 19.4656 9.48 19.4016 9.576C19.2256 9.832 19.0256 10.088 18.8016 10.344C18.5776 10.584 18.3616 10.824 18.1536 11.064C17.8976 11.368 17.6336 11.672 17.3616 11.976C17.1056 12.264 16.8336 12.544 16.5456 12.816C16.3856 12.976 16.1936 13.168 15.9696 13.392C15.7616 13.616 15.5376 13.808 15.2976 13.968C15.0736 14.144 14.8416 14.232 14.6016 14.232ZM7.54556 10.368C7.70556 10.272 7.94556 10.12 8.26556 9.912C8.60156 9.704 8.94556 9.472 9.29756 9.216C9.64956 8.96 9.94556 8.704 10.1856 8.448C10.4416 8.192 10.5696 7.968 10.5696 7.776C10.5696 7.68 10.5296 7.632 10.4496 7.632C10.2416 7.632 9.99356 7.744 9.70556 7.968C9.41756 8.192 9.12956 8.464 8.84156 8.784C8.55356 9.088 8.28956 9.392 8.04956 9.696C7.82556 9.984 7.65756 10.208 7.54556 10.368Z"
        fill="black" />
    <path
        d="M13.2759 23.088C12.5399 23.088 12.1719 22.72 12.1719 21.984C12.1719 21.904 12.1799 21.824 12.1959 21.744C12.1959 21.664 12.2039 21.584 12.2199 21.504C12.3479 20.928 12.6199 20.376 13.0359 19.848C13.4519 19.32 13.9399 18.824 14.4999 18.36C15.0599 17.912 15.6359 17.488 16.2279 17.088C16.8039 16.704 17.3239 16.368 17.7879 16.08C18.0599 15.904 18.4039 15.688 18.8199 15.432C19.2519 15.176 19.7079 14.896 20.1879 14.592C20.6679 14.304 21.1239 14.032 21.5559 13.776C21.7319 13.328 21.8839 12.832 22.0119 12.288C22.1559 11.744 22.2199 11.2 22.2039 10.656C22.0119 10.864 21.7559 11.152 21.4359 11.52C21.1159 11.872 20.7639 12.224 20.3799 12.576C20.0119 12.928 19.6359 13.232 19.2519 13.488C18.8839 13.728 18.5559 13.848 18.2679 13.848C17.9639 13.848 17.7319 13.704 17.5719 13.416C17.4119 13.128 17.3319 12.848 17.3319 12.576C17.3319 12.128 17.4599 11.64 17.7159 11.112C17.9719 10.584 18.3159 10.064 18.7479 9.552C19.1799 9.04 19.6519 8.568 20.1639 8.136C20.6759 7.704 21.1879 7.36 21.6999 7.104C22.2119 6.848 22.6839 6.72 23.1159 6.72C23.4519 6.72 23.7559 6.84 24.0279 7.08C24.2999 7.304 24.4359 7.592 24.4359 7.944C24.4359 8.056 24.4039 8.176 24.3399 8.304C24.2919 8.416 24.2039 8.472 24.0759 8.472C23.9639 8.472 23.8759 8.432 23.8119 8.352C23.7479 8.256 23.6679 8.168 23.5719 8.088C23.4759 7.992 23.3079 7.944 23.0679 7.944C22.7159 7.944 22.3319 8.064 21.9159 8.304C21.5159 8.528 21.1399 8.8 20.7879 9.12C20.4359 9.44 20.1399 9.72 19.8999 9.96C19.5959 10.28 19.2999 10.664 19.0119 11.112C18.7399 11.56 18.5239 11.992 18.3639 12.408C18.3159 12.52 18.2679 12.648 18.2199 12.792C18.1879 12.936 18.1719 13.072 18.1719 13.2C18.1719 13.36 18.2279 13.44 18.3399 13.44C18.3719 13.44 18.4039 13.44 18.4359 13.44C18.4679 13.424 18.4999 13.408 18.5319 13.392C18.9959 13.2 19.4839 12.856 19.9959 12.36C20.5079 11.864 20.9879 11.328 21.4359 10.752C21.8839 10.16 22.2439 9.656 22.5159 9.24L22.6119 9.096C22.7079 8.792 22.9159 8.64 23.2359 8.64C23.3319 8.64 23.4279 8.664 23.5239 8.712C23.6199 8.76 23.6679 8.848 23.6679 8.976C23.6679 9.68 23.6359 10.296 23.5719 10.824C23.5079 11.352 23.3559 11.952 23.1159 12.624C23.4359 12.368 23.7319 12.12 24.0039 11.88C24.2919 11.64 24.5719 11.376 24.8439 11.088C25.0999 10.832 25.3399 10.568 25.5639 10.296C25.8039 10.024 26.0519 9.768 26.3079 9.528C26.3399 9.496 26.3719 9.472 26.4039 9.456C26.4519 9.424 26.4999 9.408 26.5479 9.408C26.6439 9.408 26.6919 9.456 26.6919 9.552C26.6919 9.632 26.5719 9.808 26.3319 10.08C26.1079 10.336 25.8199 10.64 25.4679 10.992C25.1319 11.344 24.7719 11.704 24.3879 12.072C24.0199 12.424 23.6839 12.744 23.3799 13.032C23.0919 13.304 22.8919 13.488 22.7799 13.584C22.0439 15.52 21.0839 17.2 19.8999 18.624C18.7319 20.064 17.2439 21.304 15.4359 22.344C15.1319 22.52 14.7879 22.688 14.4039 22.848C14.0199 23.008 13.6439 23.088 13.2759 23.088ZM13.8279 22.488C14.2599 22.488 14.7319 22.328 15.2439 22.008C15.7399 21.704 16.2359 21.32 16.7319 20.856C17.2279 20.392 17.6759 19.928 18.0759 19.464C18.4919 19.016 18.8199 18.64 19.0599 18.336C19.3319 17.968 19.5959 17.6 19.8519 17.232C20.1079 16.88 20.3479 16.512 20.5719 16.128C20.9079 15.568 21.1879 15.024 21.4119 14.496C21.4279 14.448 21.4119 14.416 21.3639 14.4C21.3319 14.4 21.3159 14.4 21.3159 14.4C20.8199 14.752 20.3159 15.096 19.8039 15.432C19.3079 15.784 18.8039 16.128 18.2919 16.464C18.0359 16.624 17.6919 16.856 17.2599 17.16C16.8279 17.48 16.3639 17.832 15.8679 18.216C15.3719 18.616 14.8999 19.024 14.4519 19.44C14.0039 19.872 13.6359 20.288 13.3479 20.688C13.0599 21.104 12.9159 21.472 12.9159 21.792C12.9159 22.048 13.0199 22.224 13.2279 22.32C13.4199 22.432 13.6199 22.488 13.8279 22.488Z"
        fill="black" />
    <path
        d="M28.1233 14.184C27.8673 14.184 27.5953 14.056 27.3073 13.8C27.0353 13.528 26.8993 13.264 26.8993 13.008C26.8993 12.688 27.0113 12.328 27.2353 11.928C27.4593 11.512 27.7233 11.112 28.0273 10.728C28.3313 10.344 28.5953 10.016 28.8193 9.744C29.0433 9.456 29.1553 9.264 29.1553 9.168V9.12C29.0113 8.992 28.8753 8.872 28.7473 8.76C28.6193 8.632 28.4433 8.568 28.2193 8.568C28.0593 8.568 27.8513 8.664 27.5953 8.856C27.3553 9.048 27.1073 9.272 26.8513 9.528C26.5953 9.784 26.3633 10.024 26.1553 10.248C25.9473 10.472 25.7953 10.624 25.6993 10.704C25.6353 10.768 25.5713 10.808 25.5073 10.824C25.4593 10.84 25.4193 10.848 25.3873 10.848C25.3233 10.848 25.2913 10.816 25.2913 10.752C25.2913 10.688 25.3233 10.624 25.3873 10.56C25.6433 10.224 25.9393 9.88 26.2753 9.528C26.6113 9.176 26.9153 8.856 27.1873 8.568C27.4593 8.264 27.6193 8.048 27.6673 7.92C27.7953 7.552 27.9233 7.224 28.0513 6.936C28.1953 6.648 28.4193 6.376 28.7233 6.12C28.8513 5.992 29.0033 5.888 29.1793 5.808C29.3553 5.728 29.5313 5.688 29.7073 5.688C29.8673 5.688 29.9953 5.736 30.0913 5.832C30.2033 5.912 30.2593 6.04 30.2593 6.216C30.2593 6.408 30.1713 6.6 29.9953 6.792C29.8353 6.984 29.6433 7.168 29.4193 7.344C29.1953 7.504 28.9953 7.648 28.8193 7.776C28.6593 7.904 28.5873 8.008 28.6033 8.088C28.6993 8.152 28.8833 8.232 29.1553 8.328C29.4433 8.424 29.6433 8.472 29.7553 8.472C29.8833 8.472 30.0033 8.448 30.1153 8.4C30.2273 8.352 30.3393 8.328 30.4513 8.328C30.6113 8.328 30.7713 8.376 30.9313 8.472C31.0913 8.568 31.1713 8.712 31.1713 8.904C31.1713 9.064 31.1073 9.216 30.9793 9.36C30.8673 9.488 30.7473 9.6 30.6193 9.696C30.4273 9.84 30.1713 10.056 29.8513 10.344C29.5313 10.632 29.2033 10.952 28.8673 11.304C28.5473 11.656 28.2673 12.008 28.0273 12.36C27.8033 12.696 27.6913 12.992 27.6913 13.248C27.6913 13.312 27.7073 13.376 27.7393 13.44C27.7553 13.456 27.7873 13.464 27.8353 13.464C28.1553 13.464 28.5153 13.32 28.9153 13.032C29.3153 12.744 29.7153 12.392 30.1153 11.976C30.5313 11.56 30.9153 11.152 31.2673 10.752C31.6353 10.336 31.9473 10.016 32.2033 9.792C32.2353 9.76 32.2753 9.728 32.3233 9.696C32.3713 9.664 32.4193 9.648 32.4673 9.648C32.5473 9.648 32.5873 9.704 32.5873 9.816C32.5873 9.88 32.4753 10.04 32.2513 10.296C32.0433 10.552 31.7713 10.856 31.4353 11.208C31.0993 11.56 30.7473 11.92 30.3793 12.288C30.0273 12.656 29.6993 12.984 29.3953 13.272C29.0913 13.544 28.8753 13.736 28.7473 13.848C28.5713 13.992 28.4433 14.08 28.3633 14.112C28.2833 14.16 28.2033 14.184 28.1233 14.184Z"
        fill="black" />
    <path
        d="M35.9199 14.112C35.7759 14.112 35.6079 14.048 35.4159 13.92C35.2399 13.792 35.0879 13.648 34.9599 13.488C34.8319 13.312 34.7679 13.152 34.7679 13.008C34.7679 12.768 34.8559 12.448 35.0319 12.048C35.2079 11.632 35.4079 11.224 35.6319 10.824C35.8719 10.424 36.0559 10.128 36.1839 9.936C35.9599 10.128 35.6719 10.44 35.3199 10.872C34.9839 11.288 34.6159 11.736 34.2159 12.216C33.8319 12.68 33.4559 13.08 33.0879 13.416C32.7359 13.752 32.4319 13.92 32.1759 13.92C31.8239 13.92 31.5359 13.8 31.3119 13.56C31.1039 13.304 30.9999 13 30.9999 12.648C30.9999 12.168 31.1359 11.656 31.4079 11.112C31.6799 10.552 32.0319 10.016 32.4639 9.504C32.9119 8.976 33.3919 8.496 33.9039 8.064C34.4319 7.632 34.9439 7.288 35.4399 7.032C35.9519 6.776 36.4079 6.648 36.8079 6.648C37.2399 6.648 37.5919 6.752 37.8639 6.96C38.1359 7.152 38.2719 7.448 38.2719 7.848C38.2719 7.912 38.2559 8.032 38.2239 8.208C38.2079 8.384 38.1519 8.472 38.0559 8.472C38.0079 8.472 37.9279 8.4 37.8159 8.256C37.7199 8.112 37.5839 7.968 37.4079 7.824C37.2319 7.68 37.0079 7.608 36.7359 7.608C36.2879 7.608 35.8159 7.776 35.3199 8.112C34.8399 8.432 34.3759 8.848 33.9279 9.36C33.4799 9.856 33.0879 10.368 32.7519 10.896C32.4159 11.424 32.1599 11.88 31.9839 12.264C31.9359 12.376 31.8879 12.496 31.8399 12.624C31.8079 12.752 31.7919 12.88 31.7919 13.008C31.7919 13.152 31.8319 13.224 31.9119 13.224C31.9919 13.224 32.1599 13.136 32.4159 12.96C32.6879 12.784 32.8799 12.656 32.9919 12.576C33.5519 12.176 34.0799 11.72 34.5759 11.208C35.0879 10.696 35.5439 10.168 35.9439 9.624C36.0719 9.448 36.1919 9.272 36.3039 9.096C36.4159 8.92 36.5279 8.752 36.6399 8.592C36.7199 8.48 36.7999 8.424 36.8799 8.424C37.0559 8.424 37.2239 8.544 37.3839 8.784C37.5599 9.024 37.6479 9.232 37.6479 9.408C37.6479 9.488 37.6319 9.536 37.5999 9.552C37.5839 9.568 37.5359 9.616 37.4559 9.696C37.2159 9.936 36.9759 10.272 36.7359 10.704C36.5119 11.136 36.3119 11.576 36.1359 12.024C35.9759 12.456 35.8559 12.824 35.7759 13.128C35.7599 13.176 35.7439 13.24 35.7279 13.32C35.7279 13.384 35.7679 13.408 35.8479 13.392C36.0079 13.344 36.2639 13.168 36.6159 12.864C36.9839 12.544 37.3759 12.184 37.7919 11.784C38.2239 11.368 38.6079 10.984 38.9439 10.632C39.2959 10.28 39.5279 10.032 39.6399 9.888C39.6719 9.856 39.7039 9.824 39.7359 9.792C39.7839 9.744 39.8319 9.72 39.8799 9.72C39.9919 9.72 40.0479 9.776 40.0479 9.888C40.0479 9.952 39.9199 10.144 39.6639 10.464C39.4079 10.768 39.0879 11.128 38.7039 11.544C38.3199 11.944 37.9279 12.344 37.5279 12.744C37.1279 13.128 36.7759 13.456 36.4719 13.728C36.1839 13.984 35.9999 14.112 35.9199 14.112Z"
        fill="black" />
    <path
        d="M48.4828 14.184C48.3068 14.184 48.0988 14.112 47.8588 13.968C47.6188 13.84 47.4028 13.68 47.2108 13.488C47.0348 13.28 46.9468 13.072 46.9468 12.864C46.9468 12.592 47.0588 12.248 47.2828 11.832C47.5068 11.416 47.7788 10.984 48.0988 10.536C48.4348 10.088 48.7548 9.672 49.0588 9.288C49.3788 8.888 49.6348 8.568 49.8268 8.328C50.0508 8.04 50.1548 7.88 50.1388 7.848C50.1228 7.8 50.1148 7.752 50.1148 7.704C49.6668 7.928 49.1628 8.264 48.6028 8.712C48.0428 9.144 47.5068 9.6 46.9948 10.08C46.4828 10.56 46.0668 10.992 45.7468 11.376C45.5228 11.632 45.3068 11.904 45.0988 12.192C44.9068 12.464 44.7148 12.744 44.5228 13.032C44.4108 13.192 44.2668 13.36 44.0908 13.536C43.9308 13.712 43.7468 13.8 43.5388 13.8C43.4268 13.8 43.3228 13.76 43.2268 13.68C43.1468 13.6 43.1068 13.504 43.1068 13.392C43.1068 13.168 43.2508 12.832 43.5388 12.384C43.8428 11.92 44.1548 11.416 44.4748 10.872C44.6828 10.52 44.9068 10.16 45.1468 9.792C45.4028 9.408 45.6188 9.064 45.7948 8.76C45.9868 8.456 46.0828 8.248 46.0828 8.136H46.0588C46.0108 8.136 45.8988 8.176 45.7228 8.256C45.5628 8.336 45.4748 8.384 45.4588 8.4C44.6748 8.928 43.9228 9.584 43.2028 10.368C42.4988 11.152 41.8508 11.896 41.2588 12.6C41.1468 12.744 41.0268 12.896 40.8988 13.056C40.7708 13.2 40.6428 13.344 40.5148 13.488C40.4508 13.552 40.3628 13.608 40.2508 13.656C40.1388 13.688 40.0348 13.704 39.9388 13.704C39.8428 13.704 39.7068 13.672 39.5308 13.608C39.3708 13.544 39.2908 13.432 39.2908 13.272C39.2908 13.08 39.3788 12.8 39.5548 12.432C39.7308 12.064 39.9468 11.648 40.2028 11.184C40.4748 10.72 40.7548 10.264 41.0428 9.816C41.3468 9.352 41.6188 8.936 41.8588 8.568C42.1148 8.184 42.2988 7.904 42.4108 7.728C41.9148 8.16 41.4668 8.56 41.0668 8.928C40.6828 9.28 40.2428 9.76 39.7468 10.368C39.7148 10.4 39.6508 10.464 39.5548 10.56C39.4588 10.656 39.3628 10.712 39.2668 10.728C39.2348 10.728 39.1948 10.704 39.1468 10.656C39.1148 10.608 39.1068 10.568 39.1228 10.536C39.1388 10.456 39.2508 10.296 39.4588 10.056C39.6668 9.8 39.9228 9.512 40.2268 9.192C40.5308 8.872 40.8348 8.552 41.1388 8.232C41.4428 7.912 41.7068 7.632 41.9308 7.392C42.1708 7.152 42.3148 7 42.3628 6.936C42.7148 6.568 43.0268 6.272 43.2988 6.048C43.5868 5.824 43.8588 5.712 44.1148 5.712C44.2588 5.712 44.4268 5.776 44.6188 5.904C44.8108 6.032 44.9068 6.184 44.9068 6.36C44.9068 6.424 44.8908 6.464 44.8588 6.48C44.1388 7.072 43.4988 7.752 42.9388 8.52C42.3788 9.272 41.8508 10.024 41.3548 10.776C41.3388 10.792 41.2828 10.88 41.1868 11.04C41.1068 11.2 41.0108 11.376 40.8988 11.568C40.7868 11.76 40.6908 11.928 40.6108 12.072C40.5308 12.216 40.4988 12.28 40.5148 12.264C41.3628 11.464 42.2508 10.616 43.1788 9.72C44.1228 8.808 45.0348 7.984 45.9148 7.248C46.0428 7.136 46.1868 7.04 46.3468 6.96C46.5068 6.88 46.6748 6.84 46.8508 6.84C47.0428 6.84 47.1948 6.904 47.3068 7.032C47.4348 7.144 47.4988 7.296 47.4988 7.488C47.4988 7.696 47.4348 7.904 47.3068 8.112C47.1788 8.32 47.0588 8.512 46.9468 8.688C46.7868 8.976 46.6108 9.264 46.4188 9.552C46.2428 9.84 46.1148 10.072 46.0348 10.248C46.7708 9.592 47.4748 8.96 48.1468 8.352C48.8188 7.728 49.4988 7.192 50.1868 6.744C50.3468 6.632 50.5388 6.576 50.7628 6.576C50.9068 6.576 51.0908 6.6 51.3148 6.648C51.5548 6.696 51.7628 6.768 51.9388 6.864C52.1308 6.96 52.2268 7.096 52.2268 7.272C52.2268 7.368 52.1948 7.464 52.1308 7.56C52.0668 7.64 51.9948 7.712 51.9148 7.776L50.7868 8.736C50.5788 8.928 50.3228 9.2 50.0188 9.552C49.7308 9.888 49.4428 10.264 49.1548 10.68C48.8828 11.08 48.6508 11.496 48.4588 11.928C48.2828 12.36 48.1948 12.76 48.1948 13.128C48.1948 13.352 48.2508 13.464 48.3628 13.464C48.4268 13.464 48.4988 13.448 48.5788 13.416C48.6588 13.368 48.7468 13.32 48.8428 13.272C49.1788 13.08 49.5388 12.8 49.9228 12.432C50.3068 12.064 50.6828 11.672 51.0508 11.256C51.4348 10.84 51.7708 10.472 52.0588 10.152C52.3468 9.832 52.5628 9.632 52.7068 9.552C52.7388 9.52 52.7788 9.512 52.8268 9.528C52.8908 9.544 52.9228 9.576 52.9228 9.624C52.9228 9.688 52.8908 9.76 52.8268 9.84C52.7628 9.92 52.7148 9.984 52.6828 10.032C52.4108 10.352 52.1548 10.664 51.9148 10.968C51.6908 11.256 51.4348 11.56 51.1468 11.88C50.8108 12.264 50.4348 12.672 50.0188 13.104C49.6188 13.52 49.1948 13.856 48.7468 14.112C48.6828 14.16 48.5948 14.184 48.4828 14.184Z"
        fill="black" />
</svg>